<?xml version="1.0" standalone="no"?>
<!DOCTYPE svg PUBLIC "-//W3C//DTD SVG 20010904//EN"
 "http://www.w3.org/TR/2001/REC-SVG-20010904/DTD/svg10.dtd">
<svg version="1.0" xmlns="http://www.w3.org/2000/svg"
 width="300.000000pt" height="300.000000pt" viewBox="0 0 300.000000 300.000000"
 preserveAspectRatio="xMidYMid meet">
<metadata>
Created by potrace 1.10, written by Peter Selinger 2001-2011
</metadata>
<g transform="translate(0.000000,300.000000) scale(0.100000,-0.100000)"
fill="#74c3e7" stroke="none">
<path d="M495 2816 c-141 -34 -263 -150 -307 -288 -17 -56 -18 -114 -18 -1029
0 -954 0 -971 21 -1031 50 -148 175 -259 324 -288 43 -8 330 -10 1020 -8 l960
3 56 23 c115 48 202 138 251 261 l23 56 0 985 0 985 -23 56 c-49 123 -136 213
-251 261 l-56 23 -975 2 c-743 1 -987 -1 -1025 -11z m2018 -36 c81 -25 150
-75 203 -149 79 -107 74 -36 77 -1124 2 -932 1 -974 -17 -1027 -39 -113 -128
-209 -236 -253 l-55 -22 -955 -3 c-706 -2 -969 0 -1010 9 -122 26 -224 105
-280 215 l-35 69 0 1005 0 1005 34 68 c37 73 114 152 180 184 87 42 87 42
1077 42 925 1 954 0 1017 -19z"/>
<path d="M1310 2479 c-211 -11 -267 -22 -354 -63 -83 -40 -96 -60 -96 -150 0
-28 -5 -67 -10 -87 -10 -35 -12 -37 -98 -59 -48 -12 -93 -28 -101 -34 -16 -13
-44 -75 -65 -145 -14 -49 -14 -49 25 -132 56 -120 52 -173 -17 -245 -50 -52
-52 -63 -26 -189 18 -85 11 -77 114 -140 59 -37 73 -76 70 -197 l-2 -107 48
-58 c79 -94 84 -97 139 -87 75 14 75 15 10 376 -65 356 -71 449 -37 542 28 75
71 130 125 161 40 24 54 27 110 23 55 -3 73 -10 122 -44 245 -167 237 -637
-11 -709 -55 -16 -103 -9 -190 29 -47 21 -46 2 3 -31 90 -61 217 -48 295 31
165 164 145 508 -39 673 -67 61 -116 83 -190 83 -76 0 -128 -24 -179 -80 -63
-70 -88 -138 -94 -250 -4 -86 2 -131 53 -414 l58 -318 -34 -27 c-18 -14 -36
-26 -39 -26 -4 0 -34 32 -68 72 l-62 72 11 75 c18 132 -20 217 -115 257 -50
20 -56 26 -62 58 -3 20 -12 65 -20 101 l-13 65 43 37 c78 67 85 158 22 282
l-36 70 32 91 c17 49 32 91 33 93 1 1 21 -5 45 -13 48 -17 96 -20 104 -6 4 5
-15 9 -40 9 -63 0 -78 18 -22 27 107 16 109 17 120 44 6 14 13 69 17 121 l6
94 75 37 c41 21 80 38 86 38 6 1 21 -22 35 -51 38 -81 74 -125 113 -138 58
-19 100 1 181 86 l70 73 215 14 215 14 98 -65 c53 -36 97 -69 97 -74 0 -4 -12
-8 -27 -9 -16 0 -116 -8 -223 -17 l-194 -17 -18 -105 c-15 -84 -16 -114 -7
-150 25 -104 75 -147 199 -172 l85 -17 219 35 c120 19 220 33 222 32 1 -2 12
-60 24 -128 11 -69 23 -132 26 -141 3 -12 -8 -18 -48 -27 -352 -74 -393 -85
-458 -125 -77 -46 -104 -77 -121 -134 -19 -69 -7 -131 40 -214 72 -126 45
-118 238 -65 92 26 186 53 208 61 49 19 68 5 38 -27 -11 -13 -42 -55 -67 -94
l-47 -71 -157 -47 c-86 -25 -182 -53 -213 -62 l-56 -16 -94 46 c-77 39 -100
46 -128 41 -76 -14 -106 -59 -116 -170 -4 -39 -8 -75 -10 -81 -2 -7 -30 -7
-95 0 l-91 11 -35 80 c-20 44 -48 94 -64 110 -25 26 -32 49 -55 168 -14 76
-30 148 -35 160 -15 40 -22 -6 -10 -70 6 -32 18 -96 26 -143 11 -66 22 -94 45
-123 17 -21 45 -70 63 -110 49 -106 54 -109 183 -110 107 -1 110 -1 313 65
132 43 209 73 217 85 7 10 18 26 25 35 8 10 66 33 138 55 69 20 137 45 152 55
35 24 138 170 138 195 0 20 -29 89 -56 133 -49 82 -60 160 -29 220 10 19 21
37 24 40 3 3 14 15 24 27 18 21 18 21 -1 16 -26 -6 -58 -37 -75 -71 -38 -74
-27 -157 33 -247 22 -33 38 -60 37 -61 -1 -1 -284 -79 -385 -106 -7 -2 -34 39
-65 96 l-53 99 52 52 c36 36 58 69 73 111 l22 60 167 38 c92 20 196 44 232 52
35 7 73 23 84 33 19 19 19 22 2 128 -25 153 -32 178 -58 190 -25 11 -45 9
-323 -31 l-170 -25 -51 53 c-33 34 -72 61 -108 76 -34 15 -56 30 -56 39 0 9 5
62 12 119 10 85 14 102 29 102 9 0 101 7 204 16 103 8 189 14 191 12 2 -2 -3
-28 -11 -58 -23 -84 -19 -138 13 -201 29 -58 75 -93 114 -87 21 3 20 5 -13 24
-20 12 -49 38 -65 59 -24 32 -28 47 -28 99 0 33 3 90 8 126 14 115 16 111
-105 191 l-80 52 -155 -7 -155 -7 -30 26 c-20 16 -41 24 -62 24 -18 -1 -102
-6 -187 -10z m234 -35 c10 -27 7 -29 -52 -31 -61 -3 -71 -10 -155 -112 l-28
-34 -27 25 c-36 34 -64 48 -114 56 -32 6 -46 15 -59 37 -10 17 -18 35 -18 41
-1 8 57 15 177 21 274 15 269 15 276 -3z m-323 -144 c10 -6 19 -15 19 -20 0
-17 -36 -11 -55 10 -17 19 -17 20 -1 20 10 0 26 -5 37 -10z m514 -404 c17 -13
28 -27 25 -30 -8 -7 -70 31 -70 44 0 16 13 12 45 -14z m115 -524 c0 -12 -59
-78 -60 -67 0 16 39 75 50 75 5 0 10 -4 10 -8z m-186 -582 c63 -36 54 -36 169
-3 12 4 17 0 17 -15 0 -19 -24 -29 -192 -82 -106 -33 -204 -65 -217 -71 -13
-5 -25 -8 -26 -7 -1 2 0 22 3 46 3 34 10 46 31 56 34 18 74 62 95 104 16 31
19 33 39 19 12 -8 48 -29 81 -47z m-684 36 c0 -7 -9 -16 -20 -19 -23 -6 -26 3
-8 21 16 16 28 15 28 -2z m502 -38 c-12 -12 -24 -19 -28 -16 -3 4 4 16 16 28
12 12 24 19 28 16 3 -4 -4 -16 -16 -28z"/>
<path d="M1065 1761 c-87 -39 -130 -127 -123 -248 20 -335 392 -382 416 -53 8
120 -49 237 -142 290 -59 34 -95 37 -151 11z m151 -43 c70 -48 106 -119 112
-218 4 -68 1 -85 -20 -132 -42 -90 -112 -125 -191 -94 -152 58 -205 325 -85
432 61 55 114 59 184 12z"/>
</g>
</svg>
